<?xml version="1.0" encoding="UTF-8" standalone="no"?>
<!-- Created with Inkscape (http://www.inkscape.org/) -->

<svg
   xmlns:dc="http://purl.org/dc/elements/1.1/"
   xmlns:cc="http://creativecommons.org/ns#"
   xmlns:rdf="http://www.w3.org/1999/02/22-rdf-syntax-ns#"
   xmlns:svg="http://www.w3.org/2000/svg"
   xmlns="http://www.w3.org/2000/svg"
   xmlns:xlink="http://www.w3.org/1999/xlink"
   xmlns:sodipodi="http://sodipodi.sourceforge.net/DTD/sodipodi-0.dtd"
   xmlns:inkscape="http://www.inkscape.org/namespaces/inkscape"
   width="100mm"
   height="100mm"
   viewBox="0 0 100 100"
   version="1.1"
   id="svg8"
   inkscape:version="0.92.4 (5da689c313, 2019-01-14)"
   sodipodi:docname="pads-x-celonis-logos.svg">
  <defs
     id="defs2"><rect
   height="92.794998"
   width="389.914"
   y="16.780001"
   x="10.445"
   id="SVGID_1_" />
<rect
   height="92.794998"
   width="389.914"
   y="16.780001"
   x="10.445"
   id="SVGID_3_" />
<rect
   height="92.794998"
   width="389.914"
   y="16.780001"
   x="10.445"
   id="SVGID_5_" />
<rect
   height="92.794998"
   width="389.914"
   y="16.780001"
   x="10.445"
   id="SVGID_7_" />
<rect
   height="92.794998"
   width="389.914"
   y="16.780001"
   x="10.445"
   id="SVGID_9_" />
<rect
   height="92.794998"
   width="389.914"
   y="16.780001"
   x="10.445"
   id="SVGID_11_" />
<rect
   height="92.794998"
   width="389.914"
   y="16.780001"
   x="10.445"
   id="SVGID_13_" />
<rect
   height="92.794998"
   width="389.914"
   y="16.780001"
   x="10.445"
   id="SVGID_15_" />
<rect
   height="92.794998"
   width="389.914"
   y="16.780001"
   x="10.445"
   id="SVGID_17_" />

	<defs
   id="defs927">
		<rect
   height="92.794998"
   width="389.914"
   y="16.780001"
   x="10.445"
   id="rect1116" />

	</defs>

	<clipPath
   id="SVGID_10_">
		<use
   id="use929"
   overflow="visible"
   xlink:href="#SVGID_9_"
   style="overflow:visible"
   x="0"
   y="0"
   width="100%"
   height="100%" />

	</clipPath>

	
	
	
	
	
	
	
	
	
	
</defs>
  <sodipodi:namedview
     id="base"
     pagecolor="#ffffff"
     bordercolor="#666666"
     borderopacity="1.0"
     inkscape:pageopacity="0.0"
     inkscape:pageshadow="2"
     inkscape:zoom="0.98994949"
     inkscape:cx="201.62821"
     inkscape:cy="174.09706"
     inkscape:document-units="mm"
     inkscape:current-layer="layer1"
     showgrid="false"
     inkscape:window-width="1920"
     inkscape:window-height="1017"
     inkscape:window-x="-8"
     inkscape:window-y="-8"
     inkscape:window-maximized="1" />
  <metadata
     id="metadata5">
    <rdf:RDF>
      <cc:Work
         rdf:about="">
        <dc:format>image/svg+xml</dc:format>
        <dc:type
           rdf:resource="http://purl.org/dc/dcmitype/StillImage" />
        <dc:title></dc:title>
      </cc:Work>
    </rdf:RDF>
  </metadata>
  <g
     inkscape:label="Ebene 1"
     inkscape:groupmode="layer"
     id="layer1"
     transform="translate(0,-197)">
    <g
       style="clip-rule:evenodd;fill-rule:evenodd;stroke-width:1.36071515;stroke-linejoin:round;stroke-miterlimit:2"
       id="g856"
       transform="matrix(0.19444431,0,0,0.19444431,-4.4444498,231.03044)"
       inkscape:label="Celonis">
      <g
         id="g835"
         transform="matrix(0.657775,0,0,0.657775,16.66,2.53609)"
         style="stroke-width:1.36071515">
        <path
           id="path815"
           d="m 424.3,186.2 c 46.6,0 85.4,63.6 85.3,119.8 -0.2,58 -46.9,108.2 -109.2,108.2 -63.6,0 -109.2,-41.8 -109.2,-96 0,-45.1 29.3,-47.9 67.6,-74.6 44.1,-30.8 34.7,-57.4 65.5,-57.4 z"
           inkscape:connector-curvature="0"
           style="fill:#5cfe4f;fill-rule:nonzero;stroke-width:1.36071515" />
        <path
           id="path817"
           d="m 198.5,281.9 c 7.4,6 12.1,14 13.9,24.3 h -19.3 c -1.1,-5.5 -3.7,-9.7 -7.8,-12.8 -4.1,-3.1 -9.2,-4.7 -15.4,-4.7 -7,0 -12.8,2.5 -17.6,7.4 -4.6,4.9 -7,12.1 -7,21.6 0,9.5 2.4,16.7 7,21.6 4.6,4.9 10.6,7.4 17.6,7.4 6.2,0 11.3,-1.6 15.4,-4.7 4.1,-3.2 6.7,-7.5 7.8,-13 h 19.3 c -1.8,10.3 -6.5,18.3 -13.9,24.4 -7.4,6 -16.8,9 -28.3,9 -8.5,0 -16.1,-1.8 -22.6,-5.4 -6.6,-3.5 -11.7,-8.8 -15.4,-15.5 -3.7,-6.9 -5.5,-14.8 -5.5,-24 0,-9.1 1.8,-17 5.6,-23.8 3.7,-6.7 8.9,-11.9 15.4,-15.5 6.6,-3.5 14,-5.4 22.6,-5.4 11.4,0.1 20.8,3.1 28.2,9.1 z"
           inkscape:connector-curvature="0"
           style="fill-rule:nonzero;stroke-width:1.36071515" />
        <path
           id="path819"
           d="m 325.7,244.1 h 18.1 v 117.1 h -18.1 z"
           inkscape:connector-curvature="0"
           style="stroke-width:1.36071515" />
        <path
           id="path821"
           d="m 442.7,293.7 c -3.8,-6.7 -9.2,-11.9 -16,-15.5 -6.8,-3.5 -14.5,-5.4 -23,-5.4 -8.5,0 -16.2,1.8 -22.9,5.4 -6.8,3.6 -12.1,8.8 -16,15.5 -3.9,6.7 -5.8,14.7 -5.8,23.8 0,9.1 1.9,17 5.8,23.8 3.9,6.9 9.2,12 16,15.6 6.8,3.6 14.4,5.4 22.9,5.4 8.5,0 16.2,-1.8 23,-5.4 6.8,-3.5 12.1,-8.8 16,-15.5 3.8,-6.7 5.7,-14.7 5.7,-23.9 0.2,-9.1 -1.8,-17 -5.7,-23.8 z m -16.5,40 c -2.4,4.3 -5.5,7.5 -9.5,9.6 -3.9,2.1 -8.2,3.2 -13,3.2 -4.6,0 -9,-1.1 -13,-3.2 -3.9,-2.1 -7.1,-5.4 -9.5,-9.6 -2.4,-4.3 -3.6,-9.7 -3.6,-16.2 0,-6.3 1.2,-11.7 3.6,-16.1 2.4,-4.4 5.5,-7.6 9.5,-9.7 3.9,-2.1 8.2,-3.2 13,-3.2 4.6,0 9,1.1 13,3.2 3.9,2.1 7.1,5.4 9.5,9.7 2.4,4.4 3.6,9.7 3.6,16.1 0.1,6.4 -1.1,11.8 -3.6,16.2 z"
           inkscape:connector-curvature="0"
           style="fill-rule:nonzero;stroke-width:1.36071515" />
        <path
           id="path823"
           d="m 565.4,241.1 c 2.2,-2 5,-3 8.4,-3 3.6,0 6.4,1 8.5,3 2.2,2 3.2,4.5 3.2,7.6 0,3.1 -1.1,5.6 -3.2,7.4 -2.2,1.9 -5.1,2.9 -8.5,2.9 -3.6,0 -6.4,-1 -8.4,-2.9 -2.2,-1.9 -3.2,-4.4 -3.2,-7.4 -0.1,-3.1 1,-5.6 3.2,-7.6 z"
           inkscape:connector-curvature="0"
           style="fill-rule:nonzero;stroke-width:1.36071515" />
        <path
           id="path825"
           d="m 564.8,273.9 h 18.1 V 361 h -18.1 z"
           inkscape:connector-curvature="0"
           style="stroke-width:1.36071515" />
        <g
           id="g833"
           style="fill-rule:nonzero;stroke-width:1.36071515">
          <path
             id="path827"
             d="m 310.2,317.5 c 0,-9.1 -1.8,-17 -5.6,-23.8 -3.7,-6.7 -8.9,-11.9 -15.4,-15.5 -6.6,-3.5 -14,-5.4 -22.6,-5.4 -8.6,0 -16.1,1.8 -22.6,5.4 -6.6,3.6 -11.7,8.8 -15.4,15.5 -3.7,6.7 -5.6,14.7 -5.6,23.8 0,9.2 1.8,17.1 5.6,23.9 3.7,6.7 8.9,11.9 15.4,15.5 6.6,3.6 14,5.4 22.6,5.4 8.6,0 16.1,-1.8 22.6,-5.4 6.6,-3.5 11.7,-8.8 15.4,-15.5 1.8,-3.2 3.1,-6.7 4.1,-10.6 h -17.8 c -1.2,4.3 -3.2,7.7 -6,10.3 -4.6,4.3 -11.2,6.5 -18.1,6.5 -6.9,0 -13.5,-2.1 -18.1,-6.5 -4.6,-4.3 -7.1,-10.9 -7.4,-19.9 h 69.1 c -0.3,-1.2 -0.2,-2.5 -0.2,-3.7 z m -68.9,-8.9 c 1,-6.3 3.5,-11.2 7.3,-14.9 4.8,-4.3 10.7,-6.5 17.9,-6.5 7.2,0 13.1,2.1 17.9,6.5 3.9,3.5 6.4,8.5 7.3,14.9 z"
             inkscape:connector-curvature="0"
             style="stroke-width:1.36071515" />
          <path
             id="path829"
             d="m 536.5,282.2 c 6.2,6.5 9.3,16 9.3,28 v 51 h -18.2 v -49 c 0,-7.8 -2.1,-13.9 -6,-18.2 -4.1,-4.3 -9.6,-6.4 -16.6,-6.4 -7.2,0 -13.1,2.2 -17.5,6.9 -4.4,4.6 -6.6,11.3 -6.6,20.2 v 46.5 h -18.2 v -86.9 h 18.2 V 290 c 4.6,-8.7 15,-17.7 31,-17.7 10.2,0 18.4,3.2 24.6,9.9 z"
             inkscape:connector-curvature="0"
             style="stroke-width:1.36071515" />
          <path
             id="path831"
             d="m 671.8,299.4 h -17.7 c 0,-9.2 -9.4,-13.7 -18.9,-13.7 -7.2,0 -15.5,3.7 -15.5,10.7 0,7.3 7.9,9.6 22.1,13.7 18.7,5.2 32.2,10 32.2,27.5 0,16.3 -18.9,24.4 -36.8,24.4 -21.8,0 -40.2,-10.9 -40.2,-29.1 h 18.6 c 0.4,9.7 11.9,14.8 21.1,14.8 9.5,0 19.9,-2.8 19.9,-10.6 0,-9.1 -7.7,-10.7 -22.9,-15.3 -19.1,-5.8 -32.3,-9.2 -32.3,-25.1 0,-15.8 17.1,-24.4 34.4,-24.4 21.8,0 36,11.6 36,27.1 z"
             inkscape:connector-curvature="0"
             style="stroke-width:1.36071515" />
        </g>
      </g>
    </g>
    <g
       id="g1602"
       transform="matrix(2.5756517,0,0,2.5756517,9.3617948,-357.05879)"
       style="stroke-width:0.38825127">
      <path
         transform="matrix(0.24342687,0,0,0.24342687,-1.8741593e-7,212.00004)"
         style="fill:#0099a1;stroke-width:0.42199454"
         inkscape:connector-curvature="0"
         clip-path="url(#SVGID_10_)"
         d="m 80.108,56.035 v -0.728 h -1.534 v 0.728 c -1.029,0.291 -1.826,1.137 -2.028,2.198 H 69.87 v 1.535 h 6.813 c 0.408,1.076 1.442,1.847 2.658,1.847 1.216,0 2.25,-0.771 2.658,-1.847 h 6.655 v -1.535 h -6.519 c -0.202,-1.061 -0.998,-1.907 -2.027,-2.198 m -0.767,4.046 c -0.725,0 -1.315,-0.589 -1.315,-1.315 0,-0.671 0.514,-1.206 1.167,-1.282 h 0.296 c 0.651,0.076 1.166,0.611 1.166,1.282 0,0.726 -0.59,1.315 -1.314,1.315"
         id="path936" />
      <path
         transform="matrix(0.24342687,0,0,0.24342687,-1.8741593e-7,212.00004)"
         style="fill:#f5a800;stroke-width:0.42199454"
         inkscape:connector-curvature="0"
         clip-path="url(#SVGID_10_)"
         d="m 62.639,42.765 c 0,-1.602 -1.298,-2.9 -2.899,-2.9 -1.601,0 -2.899,1.298 -2.899,2.9 0,1.6 1.298,2.899 2.899,2.899 1.601,0 2.899,-1.299 2.899,-2.899"
         id="path938" />
      <path
         transform="matrix(0.24342687,0,0,0.24342687,-1.8741593e-7,212.00004)"
         style="fill:#f5a800;stroke-width:0.42199454"
         inkscape:connector-curvature="0"
         clip-path="url(#SVGID_10_)"
         d="m 56.841,50.396 c 0,-1.601 -1.299,-2.899 -2.901,-2.899 -1.6,0 -2.899,1.298 -2.899,2.899 0,1.601 1.299,2.899 2.899,2.899 1.602,-0.001 2.901,-1.298 2.901,-2.899"
         id="path940" />
      <path
         transform="matrix(0.24342687,0,0,0.24342687,-1.8741593e-7,212.00004)"
         style="fill:#f5a800;stroke-width:0.42199454"
         inkscape:connector-curvature="0"
         clip-path="url(#SVGID_10_)"
         d="m 54.665,37.804 c 0,-1.602 -1.298,-2.9 -2.899,-2.9 -1.601,0 -2.899,1.298 -2.899,2.9 0,1.601 1.298,2.9 2.899,2.9 1.601,0 2.899,-1.299 2.899,-2.9"
         id="path942" />
      <path
         transform="matrix(0.24342687,0,0,0.24342687,-1.8741593e-7,212.00004)"
         style="fill:#f5a800;stroke-width:0.42199454"
         inkscape:connector-curvature="0"
         clip-path="url(#SVGID_10_)"
         d="m 33.642,59.478 c 0,-1.602 -1.299,-2.9 -2.899,-2.9 -1.602,0 -2.9,1.299 -2.9,2.9 0,1.601 1.298,2.899 2.9,2.899 1.6,0 2.899,-1.299 2.899,-2.899"
         id="path944" />
      <path
         transform="matrix(0.24342687,0,0,0.24342687,-1.8741593e-7,212.00004)"
         style="fill:#f5a800;stroke-width:0.42199454"
         inkscape:connector-curvature="0"
         clip-path="url(#SVGID_10_)"
         d="m 33.642,66.65 c 0,-1.602 -1.299,-2.898 -2.899,-2.898 -1.602,0 -2.9,1.297 -2.9,2.898 0,1.6 1.298,2.899 2.9,2.899 1.6,10e-4 2.899,-1.299 2.899,-2.899"
         id="path946" />
      <path
         transform="matrix(0.24342687,0,0,0.24342687,-1.8741593e-7,212.00004)"
         style="fill:#f5a800;stroke-width:0.42199454"
         inkscape:connector-curvature="0"
         clip-path="url(#SVGID_10_)"
         d="m 33.642,75.502 c 0,-1.6 -1.299,-2.898 -2.899,-2.898 -1.602,0 -2.9,1.299 -2.9,2.898 0,1.602 1.298,2.899 2.9,2.899 1.6,0 2.899,-1.297 2.899,-2.899"
         id="path948" />
      <path
         transform="matrix(0.24342687,0,0,0.24342687,-1.8741593e-7,212.00004)"
         style="fill:#00b0b8;stroke-width:0.42199454"
         inkscape:connector-curvature="0"
         clip-path="url(#SVGID_10_)"
         d="m 98.889,64.627 h -15.95 v 4.349 17.402 h 21.75 V 64.627 Z m 0.097,15.223 c -0.234,0.517 -0.58,0.96 -1.04,1.335 -0.461,0.375 -1.033,0.669 -1.714,0.886 -0.681,0.214 -1.469,0.32 -2.365,0.32 -0.724,0 -1.427,-0.092 -2.109,-0.274 -0.681,-0.185 -1.28,-0.469 -1.796,-0.848 -0.516,-0.382 -0.929,-0.865 -1.242,-1.455 -0.313,-0.589 -0.464,-1.289 -0.451,-2.1 h 2.798 c 0,0.442 0.081,0.817 0.24,1.123 0.16,0.307 0.372,0.556 0.636,0.745 0.264,0.191 0.571,0.331 0.92,0.424 0.35,0.094 0.722,0.14 1.114,0.14 0.258,0 0.535,-0.022 0.829,-0.066 0.295,-0.042 0.571,-0.127 0.829,-0.247 0.257,-0.122 0.471,-0.292 0.644,-0.508 0.171,-0.214 0.258,-0.487 0.258,-0.819 0,-0.355 -0.114,-0.643 -0.341,-0.865 -0.228,-0.22 -0.526,-0.408 -0.893,-0.561 -0.367,-0.155 -0.784,-0.283 -1.253,-0.386 -0.465,-0.106 -0.938,-0.225 -1.416,-0.36 -0.492,-0.122 -0.971,-0.273 -1.437,-0.451 -0.468,-0.178 -0.884,-0.407 -1.252,-0.692 -0.369,-0.28 -0.666,-0.631 -0.893,-1.048 -0.229,-0.418 -0.341,-0.933 -0.341,-1.547 0,-0.675 0.144,-1.26 0.433,-1.76 0.288,-0.496 0.666,-0.909 1.132,-1.242 0.467,-0.331 0.996,-0.577 1.584,-0.736 0.589,-0.159 1.178,-0.24 1.766,-0.24 0.688,0 1.349,0.079 1.981,0.232 0.632,0.151 1.194,0.402 1.684,0.744 0.492,0.344 0.882,0.782 1.17,1.318 0.289,0.533 0.433,1.181 0.433,1.941 h -2.799 c -0.025,-0.394 -0.107,-0.717 -0.249,-0.975 -0.141,-0.258 -0.329,-0.462 -0.56,-0.61 -0.234,-0.145 -0.505,-0.25 -0.811,-0.312 -0.307,-0.062 -0.633,-0.091 -0.976,-0.091 -0.234,0 -0.468,0.022 -0.7,0.073 -0.233,0.049 -0.445,0.135 -0.635,0.258 -0.192,0.122 -0.347,0.277 -0.47,0.47 -0.123,0.188 -0.184,0.419 -0.184,0.688 0,0.259 0.049,0.469 0.147,0.628 0.097,0.157 0.292,0.304 0.58,0.432 0.289,0.13 0.688,0.264 1.197,0.405 0.51,0.143 1.176,0.316 1.998,0.525 0.159,0.036 0.368,0.088 0.626,0.156 0.258,0.068 0.531,0.16 0.82,0.276 0.287,0.117 0.578,0.268 0.865,0.45 0.288,0.185 0.552,0.412 0.791,0.681 0.24,0.271 0.434,0.592 0.582,0.969 0.146,0.374 0.219,0.807 0.219,1.296 0,0.605 -0.115,1.162 -0.349,1.678"
         id="path950" />
      <rect
         id="rect954"
         height="0.46178076"
         width="0.47614294"
         y="224.75269"
         x="21.183495"
         style="fill:#ffffff;stroke-width:0.10272481" />
      <g
         transform="matrix(0.24342687,0,0,0.24342687,-1.8741593e-7,212.00004)"
         id="g974"
         style="stroke-width:0.42199454">
	<defs
   id="defs957">
		<rect
   height="92.794998"
   width="389.914"
   y="16.780001"
   x="10.445"
   id="rect1133" />

	</defs>

	<clipPath
   id="SVGID_12_">
		<use
   id="use959"
   overflow="visible"
   xlink:href="#SVGID_11_"
   style="overflow:visible"
   x="0"
   y="0"
   width="100%"
   height="100%" />

	</clipPath>

	<path
   id="path962"
   d="m 101.789,52.914 c 0,-1.602 -1.3,-2.899 -2.901,-2.899 -1.6,0 -2.899,1.297 -2.899,2.899 0,1.6 1.299,2.901 2.899,2.901 1.601,0 2.901,-1.301 2.901,-2.901"
   clip-path="url(#SVGID_12_)"
   inkscape:connector-curvature="0"
   style="fill:#f5a800;stroke-width:0.42199454" />

	<path
   id="path964"
   d="m 101.789,42.154 c 0,-1.602 -1.3,-2.9 -2.901,-2.9 -1.6,0 -2.899,1.298 -2.899,2.9 0,1.601 1.299,2.9 2.899,2.9 1.601,0 2.901,-1.299 2.901,-2.9"
   clip-path="url(#SVGID_12_)"
   inkscape:connector-curvature="0"
   style="fill:#f5a800;stroke-width:0.42199454" />

	<path
   id="path966"
   d="m 99.655,58.612 v -2.914 c -0.246,0.069 -0.499,0.117 -0.767,0.117 -0.268,0 -0.522,-0.048 -0.768,-0.117 v 2.914 h -2.24 l 3.008,6.014 3.006,-6.014 z"
   clip-path="url(#SVGID_12_)"
   inkscape:connector-curvature="0"
   style="fill:#00b0b8;stroke-width:0.42199454" />

	<path
   id="path968"
   d="m 98.888,50.015 c 0.268,0 0.522,0.048 0.767,0.116 V 44.94 c -0.245,0.066 -0.499,0.114 -0.767,0.114 -0.268,0 -0.522,-0.048 -0.767,-0.115 v 5.192 c 0.245,-0.068 0.499,-0.116 0.767,-0.116"
   clip-path="url(#SVGID_12_)"
   inkscape:connector-curvature="0"
   style="fill:#00b0b8;stroke-width:0.42199454" />

	<path
   id="path970"
   d="m 89.834,48.527 h -5.892 c -0.109,0.16 -0.201,0.333 -0.323,0.48 -0.498,0.587 -1.118,1.051 -1.86,1.388 -0.742,0.338 -1.618,0.508 -2.624,0.508 h -5.671 v -2.376 h -4.619 c -0.196,0 -0.358,0.16 -0.358,0.358 v 6.064 c 0,0.198 0.162,0.359 0.358,0.359 h 20.989 c 0.197,0 0.359,-0.161 0.359,-0.359 v -6.064 c 0,-0.198 -0.162,-0.358 -0.359,-0.358 m -0.856,5.758 h -1.956 v -1.897 h 1.956 z"
   clip-path="url(#SVGID_12_)"
   inkscape:connector-curvature="0"
   style="fill:#00b0b8;stroke-width:0.42199454" />

	<path
   id="path972"
   d="m 76.355,47.408 v 1.064 h 2.579 c 0.416,0 0.82,-0.067 1.214,-0.203 0.393,-0.135 0.744,-0.359 1.049,-0.672 0.054,-0.055 0.095,-0.129 0.145,-0.189 z"
   clip-path="url(#SVGID_12_)"
   inkscape:connector-curvature="0"
   style="fill:#0099a1;stroke-width:0.42199454" />

</g>
      <rect
         id="rect976"
         height="0.27263808"
         width="0.83787525"
         y="223.54042"
         x="17.045481"
         style="fill:#0099a1;stroke-width:0.10272481" />
      <g
         transform="matrix(0.24342687,0,0,0.24342687,-1.8741593e-7,212.00004)"
         id="g988"
         style="stroke-width:0.42199454">
	<defs
   id="defs979">
		<rect
   height="92.794998"
   width="389.914"
   y="16.780001"
   x="10.445"
   id="rect1146" />

	</defs>

	<clipPath
   id="SVGID_14_">
		<use
   id="use981"
   overflow="visible"
   xlink:href="#SVGID_13_"
   style="overflow:visible"
   x="0"
   y="0"
   width="100%"
   height="100%" />

	</clipPath>

	<path
   id="path984"
   d="m 73.465,40.628 h -4.619 c -0.196,0 -0.358,0.16 -0.358,0.358 v 6.064 c 0,0.198 0.162,0.357 0.358,0.357 h 4.619 z"
   clip-path="url(#SVGID_14_)"
   inkscape:connector-curvature="0"
   style="fill:#00b0b8;stroke-width:0.42199454" />

	<path
   id="path986"
   d="m 78.418,40.186 h -2.063 v 0.443 h 4.103 C 80.374,40.584 80.303,40.528 80.212,40.49 79.727,40.287 79.129,40.186 78.418,40.186"
   clip-path="url(#SVGID_14_)"
   inkscape:connector-curvature="0"
   style="fill:#0099a1;stroke-width:0.42199454" />

</g>
      <rect
         id="rect990"
         height="0.27263808"
         width="0.83787525"
         y="221.61736"
         x="17.045481"
         style="fill:#0099a1;stroke-width:0.10272481" />
      <g
         transform="matrix(0.24342687,0,0,0.24342687,-1.8741593e-7,212.00004)"
         id="g1028"
         style="stroke-width:0.42199454">
	<defs
   id="defs993">
		<rect
   height="92.794998"
   width="389.914"
   y="16.780001"
   x="10.445"
   id="rect1155" />

	</defs>

	<clipPath
   id="SVGID_16_">
		<use
   id="use995"
   overflow="visible"
   xlink:href="#SVGID_15_"
   style="overflow:visible"
   x="0"
   y="0"
   width="100%"
   height="100%" />

	</clipPath>

	<path
   id="path998"
   d="m 95.989,36.96 h -5.797 v -3.872 c 0,-0.199 -0.16,-0.359 -0.358,-0.359 H 68.846 c -0.197,0 -0.359,0.16 -0.359,0.359 v 6.063 c 0,0.198 0.162,0.357 0.359,0.357 h 4.618 v -1.753 h 5.671 c 0.848,0 1.637,0.135 2.367,0.405 0.73,0.27 1.363,0.675 1.897,1.215 0.039,0.04 0.066,0.093 0.104,0.133 h 6.331 c 0.198,0 0.358,-0.159 0.358,-0.357 v -0.656 h 5.797 c 0.751,0 1.409,0.392 1.789,0.981 0.343,-0.143 0.716,-0.222 1.11,-0.222 0.175,0 0.345,0.021 0.511,0.051 -0.533,-1.368 -1.855,-2.345 -3.41,-2.345 m -7.012,1.526 h -1.956 v -1.897 h 1.956 z"
   clip-path="url(#SVGID_16_)"
   inkscape:connector-curvature="0"
   style="fill:#00b0b8;stroke-width:0.42199454" />

	<path
   id="path1000"
   d="m 53.258,47.586 v -6.882 c 0,-0.138 -0.026,-0.269 -0.041,-0.403 -0.429,0.25 -0.92,0.403 -1.452,0.403 -0.014,0 -0.027,-0.004 -0.042,-0.004 v 0.004 7.249 c 0,0.181 0.028,0.355 0.055,0.529 0.386,-0.436 0.896,-0.755 1.48,-0.896"
   clip-path="url(#SVGID_16_)"
   inkscape:connector-curvature="0"
   style="fill:#00b0b8;stroke-width:0.42199454" />

	<path
   id="path1002"
   d="m 59.74,39.865 c 0.312,0 0.608,0.062 0.889,0.153 0.265,-0.769 0.957,-1.34 1.794,-1.426 v 2.22 l 6.017,-3.008 -6.017,-3.007 v 2.262 c -1.666,0.099 -3.037,1.306 -3.369,2.896 0.221,-0.053 0.449,-0.09 0.686,-0.09"
   clip-path="url(#SVGID_16_)"
   inkscape:connector-curvature="0"
   style="fill:#00b0b8;stroke-width:0.42199454" />

	<path
   id="path1004"
   d="m 59.74,45.664 c -0.268,0 -0.522,-0.048 -0.767,-0.116 v 2.404 c 0,1.177 -0.957,2.133 -2.132,2.133 H 56.81 c 0.01,0.104 0.031,0.204 0.031,0.31 0,0.44 -0.107,0.853 -0.28,1.226 h 0.28 c 2.022,0 3.666,-1.646 3.666,-3.669 v -2.404 c -0.245,0.068 -0.499,0.116 -0.767,0.116"
   clip-path="url(#SVGID_16_)"
   inkscape:connector-curvature="0"
   style="fill:#00b0b8;stroke-width:0.42199454" />

	<path
   id="path1006"
   d="m 29.975,62.261 v 1.606 c 0.246,-0.067 0.499,-0.115 0.767,-0.115 0.268,0 0.522,0.048 0.768,0.115 v -1.606 c -0.246,0.068 -0.5,0.116 -0.768,0.116 -0.268,0 -0.521,-0.048 -0.767,-0.116"
   clip-path="url(#SVGID_16_)"
   inkscape:connector-curvature="0"
   style="fill:#00b0b8;stroke-width:0.42199454" />

	<path
   id="path1008"
   d="m 31.51,72.719 v -3.285 c -0.246,0.067 -0.499,0.115 -0.767,0.115 -0.268,0 -0.522,-0.048 -0.768,-0.115 v 3.285 c 0.246,-0.067 0.5,-0.116 0.768,-0.116 0.268,0 0.521,0.048 0.767,0.116"
   clip-path="url(#SVGID_16_)"
   inkscape:connector-curvature="0"
   style="fill:#00b0b8;stroke-width:0.42199454" />

	<path
   id="path1010"
   d="M 33.426,80.514 C 32.353,80.405 31.51,79.504 31.51,78.403 v -0.117 c -0.246,0.068 -0.499,0.117 -0.767,0.117 -0.268,0 -0.522,-0.049 -0.768,-0.117 v 0.117 c 0,1.948 1.531,3.532 3.451,3.646 v 2.262 l 6.016,-3.007 -6.016,-3.01 z"
   clip-path="url(#SVGID_16_)"
   inkscape:connector-curvature="0"
   style="fill:#00b0b8;stroke-width:0.42199454" />

	<path
   id="path1012"
   d="m 74.24,74.663 c 0.268,0 0.522,0.048 0.767,0.115 v -2.902 c 0,-1.101 0.843,-2.002 1.916,-2.11 v 2.221 L 82.94,68.976 76.923,65.97 v 2.261 c -1.92,0.114 -3.45,1.698 -3.45,3.646 v 2.902 c 0.245,-0.068 0.499,-0.116 0.767,-0.116"
   clip-path="url(#SVGID_16_)"
   inkscape:connector-curvature="0"
   style="fill:#00b0b8;stroke-width:0.42199454" />

	<path
   id="path1014"
   d="m 74.24,80.463 c -0.388,0 -0.755,-0.078 -1.093,-0.217 -0.377,0.607 -1.043,1.014 -1.808,1.014 H 69.89 c -1.176,0 -2.134,-0.956 -2.134,-2.135 v -2.289 c -0.245,0.068 -0.499,0.115 -0.767,0.115 -0.268,0 -0.522,-0.047 -0.767,-0.115 v 2.289 c 0,2.024 1.646,3.668 3.668,3.668 h 1.449 c 1.569,0 2.901,-0.992 3.425,-2.384 -0.171,0.031 -0.345,0.054 -0.524,0.054"
   clip-path="url(#SVGID_16_)"
   inkscape:connector-curvature="0"
   style="fill:#00b0b8;stroke-width:0.42199454" />

	<path
   id="path1016"
   d="m 69.89,74.052 c 0,-1.601 -1.299,-2.899 -2.901,-2.899 -1.599,0 -2.899,1.299 -2.899,2.899 0,1.6 1.3,2.9 2.899,2.9 1.602,0 2.901,-1.3 2.901,-2.9"
   clip-path="url(#SVGID_16_)"
   inkscape:connector-curvature="0"
   style="fill:#f5a800;stroke-width:0.42199454" />

	<path
   id="path1018"
   d="m 77.139,77.563 c 0,-1.601 -1.299,-2.899 -2.899,-2.899 -1.601,0 -2.901,1.299 -2.901,2.899 0,1.6 1.3,2.9 2.901,2.9 1.6,0 2.899,-1.3 2.899,-2.9"
   clip-path="url(#SVGID_16_)"
   inkscape:connector-curvature="0"
   style="fill:#f5a800;stroke-width:0.42199454" />

	<path
   id="path1020"
   d="M 37.852,40.36 C 37.618,40.219 37.349,40.124 37.042,40.075 36.734,40.025 36.416,40 36.083,40 h -2.245 v 3.942 h 2.245 c 0.333,0 0.652,-0.025 0.959,-0.074 0.307,-0.049 0.576,-0.144 0.81,-0.287 0.233,-0.14 0.419,-0.34 0.562,-0.598 0.141,-0.257 0.211,-0.595 0.211,-1.013 0,-0.416 -0.07,-0.754 -0.211,-1.012 -0.143,-0.257 -0.33,-0.457 -0.562,-0.598"
   clip-path="url(#SVGID_16_)"
   inkscape:connector-curvature="0"
   style="fill:#00b0b8;stroke-width:0.42199454" />

	<path
   id="path1022"
   d="M 48.983,37.037 H 46.691 V 33.453 H 24.942 v 21.75 h 5.033 v 1.489 c 0.246,-0.067 0.499,-0.115 0.767,-0.115 0.268,0 0.522,0.048 0.768,0.115 V 55.203 H 46.691 V 38.571 h 2.292 c -0.068,-0.245 -0.116,-0.5 -0.116,-0.767 0,-0.267 0.048,-0.522 0.116,-0.767 m -7.808,6.5 c -0.166,0.503 -0.431,0.951 -0.792,1.344 -0.362,0.393 -0.832,0.708 -1.408,0.949 -0.578,0.239 -1.277,0.358 -2.1,0.358 h -3.038 v 4.715 H 30.946 V 37.755 h 5.929 c 0.823,0 1.522,0.119 2.1,0.359 0.576,0.239 1.046,0.556 1.408,0.947 0.361,0.394 0.626,0.845 0.792,1.355 0.165,0.509 0.249,1.028 0.249,1.555 0,0.541 -0.084,1.062 -0.249,1.566"
   clip-path="url(#SVGID_16_)"
   inkscape:connector-curvature="0"
   style="fill:#00b0b8;stroke-width:0.42199454" />

	<path
   id="path1024"
   d="m 30.946,37.755 h 5.929 c 0.823,0 1.522,0.119 2.1,0.359 0.576,0.239 1.046,0.555 1.408,0.947 0.361,0.394 0.626,0.845 0.792,1.355 0.165,0.509 0.249,1.027 0.249,1.555 0,0.54 -0.084,1.062 -0.249,1.565 -0.166,0.504 -0.431,0.952 -0.792,1.345 -0.362,0.393 -0.832,0.708 -1.408,0.948 -0.578,0.24 -1.277,0.358 -2.1,0.358 h -3.038 v 4.716 h -2.891 z m 2.891,6.187 h 2.245 c 0.333,0 0.652,-0.026 0.959,-0.074 0.307,-0.049 0.576,-0.144 0.81,-0.286 0.233,-0.14 0.42,-0.341 0.562,-0.599 0.141,-0.257 0.212,-0.595 0.212,-1.012 0,-0.417 -0.071,-0.754 -0.212,-1.012 C 38.271,40.701 38.084,40.502 37.851,40.36 37.617,40.219 37.348,40.123 37.041,40.075 36.734,40.026 36.416,40 36.083,40 h -2.245 v 3.942 z"
   clip-path="url(#SVGID_16_)"
   inkscape:connector-curvature="0"
   style="fill:#ffffff;stroke-width:0.42199454" />

	<path
   id="path1026"
   d="m 64.09,68.209 h -2.899 c -0.026,0 -0.047,0.012 -0.072,0.014 V 64.627 H 39.441 V 86.378 H 61.119 V 69.729 c 0.025,0.002 0.046,0.016 0.072,0.016 h 2.899 c 0.973,0 1.786,0.658 2.042,1.553 0.272,-0.085 0.556,-0.146 0.857,-0.146 0.244,0 0.478,0.039 0.703,0.097 -0.299,-1.724 -1.795,-3.04 -3.602,-3.04 M 53.374,82.078 52.38,79.149 h -4.916 l -1.032,2.929 H 43.504 L 48.495,68.93 h 2.964 l 4.916,13.148 z"
   clip-path="url(#SVGID_16_)"
   inkscape:connector-curvature="0"
   style="fill:#00b0b8;stroke-width:0.42199454" />

</g>
      <polygon
         transform="matrix(0.24342687,0,0,0.24342687,-1.8741593e-7,212.00004)"
         id="polygon1030"
         points="48.218,76.997 51.625,76.997 49.968,72.172 49.931,72.172 "
         style="fill:#00b0b8;stroke-width:0.42199454" />
      <path
         id="path1032"
         d="m 11.804986,228.7797 h 0.721517 l 1.196687,3.20033 h -0.730281 l -0.24221,-0.713 h -1.196686 l -0.251217,0.713 h -0.712754 z m -0.06743,1.96348 h 0.829598 L 12.16331,229.5684 h -0.009 z"
         inkscape:connector-curvature="0"
         style="fill:#ffffff;stroke-width:0.10272481" />
      <g
         transform="matrix(0.24342687,0,0,0.24342687,-1.8741593e-7,212.00004)"
         id="g1052"
         style="stroke-width:0.42199454">
	<defs
   id="defs1035">
		<rect
   height="92.794998"
   width="389.914"
   y="16.780001"
   x="10.445"
   id="rect1178" />

	</defs>

	<clipPath
   id="SVGID_18_">
		<use
   id="use1037"
   overflow="visible"
   xlink:href="#SVGID_17_"
   style="overflow:visible"
   x="0"
   y="0"
   width="100%"
   height="100%" />

	</clipPath>

	<path
   id="path1040"
   d="m 91.067,77.714 c 0,0.442 0.08,0.817 0.239,1.123 0.161,0.306 0.373,0.556 0.636,0.745 0.264,0.192 0.572,0.33 0.921,0.423 0.35,0.095 0.722,0.142 1.114,0.142 0.258,0 0.534,-0.024 0.828,-0.066 0.295,-0.043 0.572,-0.128 0.83,-0.249 0.258,-0.121 0.471,-0.291 0.644,-0.507 0.171,-0.215 0.258,-0.487 0.258,-0.82 0,-0.354 -0.115,-0.642 -0.341,-0.864 -0.228,-0.22 -0.525,-0.408 -0.893,-0.561 -0.368,-0.155 -0.785,-0.283 -1.253,-0.386 -0.465,-0.107 -0.939,-0.225 -1.417,-0.361 -0.491,-0.122 -0.971,-0.272 -1.436,-0.45 -0.468,-0.178 -0.884,-0.407 -1.253,-0.691 -0.368,-0.281 -0.665,-0.632 -0.893,-1.049 -0.227,-0.418 -0.341,-0.933 -0.341,-1.547 0,-0.675 0.145,-1.26 0.433,-1.76 0.288,-0.496 0.667,-0.909 1.133,-1.241 0.467,-0.333 0.995,-0.578 1.583,-0.736 0.59,-0.16 1.179,-0.242 1.768,-0.242 0.687,0 1.347,0.08 1.979,0.233 0.633,0.15 1.194,0.402 1.685,0.745 0.491,0.342 0.881,0.781 1.17,1.317 0.289,0.533 0.432,1.181 0.432,1.941 h -2.799 c -0.023,-0.395 -0.106,-0.717 -0.248,-0.975 -0.142,-0.258 -0.329,-0.462 -0.561,-0.61 -0.233,-0.145 -0.503,-0.25 -0.811,-0.311 -0.307,-0.063 -0.632,-0.092 -0.975,-0.092 -0.235,0 -0.468,0.023 -0.701,0.074 -0.232,0.048 -0.444,0.134 -0.635,0.257 -0.191,0.122 -0.347,0.276 -0.47,0.47 -0.123,0.188 -0.183,0.419 -0.183,0.69 0,0.257 0.048,0.467 0.146,0.627 0.098,0.155 0.292,0.303 0.581,0.431 0.289,0.13 0.687,0.264 1.196,0.404 0.511,0.144 1.177,0.317 1.999,0.526 0.159,0.036 0.368,0.088 0.626,0.155 0.258,0.069 0.53,0.161 0.82,0.277 0.287,0.117 0.577,0.268 0.864,0.449 0.289,0.186 0.553,0.413 0.792,0.682 0.239,0.271 0.434,0.592 0.581,0.969 0.147,0.374 0.22,0.807 0.22,1.296 0,0.604 -0.116,1.161 -0.35,1.677 -0.233,0.517 -0.579,0.96 -1.039,1.334 -0.462,0.376 -1.033,0.67 -1.714,0.887 -0.681,0.214 -1.47,0.319 -2.366,0.319 -0.724,0 -1.426,-0.092 -2.107,-0.273 -0.682,-0.185 -1.281,-0.468 -1.797,-0.848 -0.515,-0.382 -0.929,-0.865 -1.243,-1.454 -0.313,-0.59 -0.463,-1.289 -0.45,-2.101 h 2.798 z"
   clip-path="url(#SVGID_18_)"
   inkscape:connector-curvature="0"
   style="fill:#ffffff;stroke-width:0.42199454" />

	<path
   id="path1042"
   d="m 89.834,40.629 h -5.558 c 0.132,0.248 0.269,0.491 0.375,0.772 0.301,0.81 0.45,1.763 0.45,2.854 0,0.958 -0.122,1.841 -0.366,2.652 -0.056,0.179 -0.139,0.332 -0.207,0.501 h 5.306 c 0.197,0 0.359,-0.16 0.359,-0.357 v -6.064 c 0,-0.199 -0.162,-0.358 -0.359,-0.358 m -0.856,5.757 h -1.956 v -1.897 h 1.956 z"
   clip-path="url(#SVGID_18_)"
   inkscape:connector-curvature="0"
   style="fill:#00b0b5;stroke-width:0.42199454" />

	<path
   id="path1044"
   d="m 84.529,47.408 v 0 c -0.161,0.405 -0.356,0.777 -0.587,1.119 v 10e-4 h 4.91 v -1.12 z"
   clip-path="url(#SVGID_18_)"
   inkscape:connector-curvature="0"
   style="fill:#0099a1;stroke-width:0.42199454" />

	<path
   id="path1046"
   d="m 83.503,39.508 c 0.3,0.324 0.552,0.703 0.773,1.118 v 0.001 h 0.001 l 4.575,10e-4 v -1.12 z"
   clip-path="url(#SVGID_18_)"
   inkscape:connector-curvature="0"
   style="fill:#0099a1;stroke-width:0.42199454" />

	<path
   id="path1048"
   d="m 82.018,42.735 c -0.129,-0.533 -0.341,-0.991 -0.635,-1.372 -0.24,-0.309 -0.559,-0.544 -0.923,-0.734 0,-10e-4 -10e-4,-10e-4 -10e-4,-10e-4 h -4.103 v 6.779 h 4.987 c 0.115,-0.139 0.223,-0.29 0.32,-0.457 0.099,-0.179 0.194,-0.365 0.272,-0.577 0.184,-0.505 0.275,-1.117 0.275,-1.842 -10e-4,-0.664 -0.064,-1.262 -0.192,-1.796"
   clip-path="url(#SVGID_18_)"
   inkscape:connector-curvature="0"
   style="fill:#00b0b8;stroke-width:0.42199454" />

	<path
   id="path1050"
   d="m 84.276,40.627 v 0 c -0.106,-0.198 -0.219,-0.386 -0.34,-0.565 -0.133,-0.191 -0.272,-0.376 -0.426,-0.543 -0.003,-0.003 -0.005,-0.007 -0.008,-0.01 -0.037,-0.041 -0.064,-0.094 -0.103,-0.133 -0.535,-0.54 -1.167,-0.947 -1.898,-1.217 -0.73,-0.269 -1.519,-0.404 -2.366,-0.404 h -5.67 v 13.147 h 5.67 c 1.007,0 1.881,-0.169 2.624,-0.507 0.743,-0.337 1.363,-0.801 1.859,-1.389 0.124,-0.146 0.216,-0.32 0.323,-0.48 0.231,-0.341 0.427,-0.714 0.587,-1.118 0.067,-0.169 0.151,-0.323 0.205,-0.502 0.245,-0.81 0.368,-1.693 0.368,-2.652 0,-1.091 -0.15,-2.044 -0.452,-2.854 -0.103,-0.281 -0.239,-0.525 -0.373,-0.773 m -2.341,5.746 c -0.184,0.503 -0.43,0.91 -0.738,1.224 -0.305,0.314 -0.655,0.537 -1.048,0.672 -0.394,0.136 -0.798,0.202 -1.215,0.202 h -2.578 v -8.285 h 2.062 c 0.712,0 1.31,0.1 1.794,0.304 0.486,0.201 0.876,0.493 1.171,0.873 0.294,0.381 0.506,0.839 0.635,1.372 0.129,0.534 0.192,1.133 0.192,1.797 -10e-4,0.724 -0.091,1.338 -0.275,1.841"
   clip-path="url(#SVGID_18_)"
   inkscape:connector-curvature="0"
   style="fill:#ffffff;stroke-width:0.42199454" />

</g>
      <rect
         id="rect1054"
         height="0.46178076"
         width="0.47614294"
         y="222.82986"
         x="21.183495"
         style="fill:#ffffff;stroke-width:0.10272481" />
      <rect
         id="rect1056"
         height="0.46178076"
         width="0.47614294"
         y="220.90678"
         x="21.183495"
         style="fill:#ffffff;stroke-width:0.10272481" />
    </g>
  </g>
</svg>
